<?xml version="1.0" encoding="utf-8"?>
<!-- Generator: Adobe Illustrator 16.0.0, SVG Export Plug-In . SVG Version: 6.00 Build 0)  -->
<!DOCTYPE svg PUBLIC "-//W3C//DTD SVG 1.1//EN" "http://www.w3.org/Graphics/SVG/1.1/DTD/svg11.dtd">
<svg version="1.1" id="Layer_1" xmlns="http://www.w3.org/2000/svg" xmlns:xlink="http://www.w3.org/1999/xlink" x="0px" y="0px"
	 width="208.873px" height="208.853px" viewBox="0 0 208.873 208.853" enable-background="new 0 0 208.873 208.853"
	 xml:space="preserve">
<rect x="14.187" y="11.635" fill="#EA212D" stroke="#231F20" stroke-width="4" stroke-miterlimit="10" width="180.451" height="180.451"/>
<g>
	<path fill="#FFFFFF" d="M112.726,49.748l0.451-16.181l-7.138,15.995l-0.258-0.008l-6.237-16.366l-0.451,16.18l-0.822-0.023
		l0.478-17.157l1.312,0.036l5.9,15.534l6.756-15.181l1.312,0.037l-0.478,17.157L112.726,49.748z"/>
	<path fill="#FFFFFF" d="M125.623,46.461l4.665-9.573l0.74,0.36l-4.665,9.572c-1.667,3.423-0.891,6.291,2.347,7.869
		c3.237,1.577,5.975,0.421,7.643-3.001l4.665-9.572l0.74,0.36l-4.664,9.572c-1.859,3.816-4.975,5.159-8.721,3.333
		C124.626,53.558,123.775,50.253,125.623,46.461z"/>
	<path fill="#FFFFFF" d="M143.041,61.64l0.887,0.103c-0.253,1.644,0.01,3.826,1.658,5.664c2.645,2.949,5,2.184,6.206,1.104
		c4.213-3.779-4.829-9.663-0.462-13.577c2.068-1.854,4.956-1.023,6.844,1.083c1.683,1.877,2.212,3.854,1.909,5.751l-0.87-0.084
		c0.361-1.948-0.292-3.677-1.614-5.152c-1.665-1.857-4.098-2.335-5.668-0.928c-3.638,3.263,5.231,9.302,0.462,13.576
		c-1.436,1.288-4.291,2.189-7.381-1.258C143.227,65.93,142.697,63.606,143.041,61.64z"/>
	<path fill="#FFFFFF" d="M153.781,79.912l15.979-6.253l3.826,9.774l-0.719,0.28l-3.525-9.008l-6.684,2.616l3.459,8.84l-0.718,0.281
		l-3.46-8.84l-7.14,2.794l3.525,9.008l-0.718,0.282L153.781,79.912z"/>
	<path fill="#FFFFFF" d="M165.886,98.599l10.648,0.107l-0.008,0.823l-10.648-0.107c-3.807-0.039-6.064,1.894-6.1,5.494
		c-0.036,3.601,2.182,5.578,5.989,5.616l10.647,0.107l-0.008,0.824l-10.648-0.108c-4.245-0.043-6.793-2.281-6.752-6.447
		C159.049,100.742,161.668,98.557,165.886,98.599z"/>
	<path fill="#FFFFFF" d="M151.3,133.791l14.668,6.825l-11.848-12.888l0.108-0.233l17.49,0.761l-14.669-6.825l0.347-0.746
		l15.555,7.237l-0.554,1.189l-16.591-0.741l11.253,12.215l-0.554,1.19l-15.555-7.237L151.3,133.791z"/>
	<path fill="#FFFFFF" d="M132.193,151.943l2.093,1.544l5.547-3.828l-0.701-2.505l4.112-2.839l4.417,17.722l-4.577,3.158
		l-15.004-10.412L132.193,151.943z M142.887,160.037l-1.86-6.53l-3.565,2.46L142.887,160.037z"/>
	<path fill="#FFFFFF" d="M107.576,159.491l1.726,11.166l2.528-11.824l1.925-0.297l6.005,10.504l-1.726-11.166l4.356-0.673
		l2.61,16.89l-6.052,0.936l-4.985-8.771l-2.08,9.862l-6.051,0.936l-2.611-16.89L107.576,159.491z"/>
	<path fill="#FFFFFF" d="M95.8,161.552l-3.187,2.658c-0.844-1.521-2.384-3.028-4.65-3.677c-1.429-0.409-2.456-0.17-2.689,0.642
		c-0.621,2.168,9.181,3.03,7.367,9.36c-0.79,2.759-3.811,4.558-8.023,3.352c-2.636-0.755-4.7-2.199-6.019-4.202l3.226-2.514
		c1.047,1.552,2.684,2.633,4.31,3.1c1.231,0.353,1.894,0.09,2.098-0.625c0.578-2.021-9.146-3.152-7.396-9.262
		c0.945-3.301,4.012-4.794,8.421-3.53C92.582,157.805,94.594,159.528,95.8,161.552z"/>
	<path fill="#FFFFFF" d="M72.975,149.472l-8.009,10.556l3.818,2.897l-2.324,3.062l-11.128-8.442l2.324-3.062l3.798,2.881
		l8.009-10.556L72.975,149.472z"/>
	<path fill="#FFFFFF" d="M60.961,138.471l-14.529,9.003l-6.601-10.653l3.268-2.024l4.279,6.906l2.266-1.404l-4.184-6.752
		l3.267-2.025l4.185,6.753l2.462-1.525l-4.279-6.905l3.268-2.025L60.961,138.471z"/>
	<path fill="#FFFFFF" d="M49.9,111.318l-5.16,3.816l0.389,2.221l5.654-0.988l0.759,4.341l-16.836,2.945l-1.475-8.431
		c-0.653-3.735,1.45-6.289,4.58-6.834c2.928-0.513,4.802,0.981,5.635,2.474l5.584-4.515L49.9,111.318z M38.559,112.808
		c-1.161,0.202-1.629,1.247-1.426,2.408l0.601,3.433l3.609-0.631l-0.601-3.433C40.54,113.424,39.745,112.599,38.559,112.808z"/>
	<path fill="#FFFFFF" d="M49.26,99.003l-16.609-4.045l1.699-6.972c1.274-5.229,5.327-8.224,10.482-6.969
		c5.153,1.256,7.4,5.786,6.132,10.99L49.26,99.003z M43.764,85.399c-2.565-0.625-4.933,0.434-5.673,3.472l-0.661,2.714l9.138,2.225
		l0.656-2.689C47.934,88.209,46.229,86,43.764,85.399z"/>
	<path fill="#FFFFFF" d="M63.578,67.5l-2.463-0.835l-4.121,5.332l1.429,2.173l-3.054,3.955l-9.59-15.538l3.399-4.399l17.454,5.36
		L63.578,67.5z M50.934,63.04l3.756,5.654l2.648-3.426L50.934,63.04z"/>
	<path fill="#FFFFFF" d="M84.854,52.835l-5.532-11.016l1.226,13.179l-1.42,0.713l-9.838-8.854l5.531,11.016l-3.252,1.633
		L63.9,44.229l4.558-2.289l8.506,7.688l-1.085-11.414l4.581-2.299l7.671,15.276L84.854,52.835z"/>
</g>
</svg>
